<svg xmlns="http://www.w3.org/2000/svg" xmlns:xlink="http://www.w3.org/1999/xlink" width="200" zoomAndPan="magnify" viewBox="0 0 150 147.000002" height="196" preserveAspectRatio="xMidYMid meet" version="1.2"><defs><clipPath id="41c201deb4"><path d="M 3.847656 0 L 148.773438 0 L 148.773438 144.921875 L 3.847656 144.921875 Z M 3.847656 0 "/></clipPath><clipPath id="4d72ed2395"><path d="M 76.308594 0 C 36.289062 0 3.847656 32.441406 3.847656 72.460938 C 3.847656 112.480469 36.289062 144.921875 76.308594 144.921875 C 116.328125 144.921875 148.773438 112.480469 148.773438 72.460938 C 148.773438 32.441406 116.328125 0 76.308594 0 Z M 76.308594 0 "/></clipPath><clipPath id="324832f504"><path d="M 8.214844 86.574219 L 144.164062 86.574219 L 144.164062 105.09375 L 8.214844 105.09375 Z M 8.214844 86.574219 "/></clipPath><clipPath id="1eb7d88d76"><path d="M 8.304688 91.234375 C 13.347656 86.421875 14.496094 86.304688 15.984375 86.878906 C 18.851562 87.910156 23.78125 92.957031 26.765625 95.9375 C 29.285156 98.460938 31.351562 102.359375 33.183594 103.390625 C 34.101562 103.964844 34.675781 104.078125 35.824219 104.078125 C 38.6875 103.964844 45.570312 101.785156 50.039062 100.066406 C 54.28125 98.460938 58.296875 95.363281 62.195312 93.988281 C 65.40625 92.726562 68.042969 92.039062 71.597656 91.808594 C 76.066406 91.464844 81.914062 91.695312 87.074219 92.957031 C 92.808594 94.21875 99.917969 98.6875 104.617188 99.949219 C 107.714844 100.867188 110.582031 101.554688 112.414062 101.324219 C 113.332031 101.324219 113.792969 101.097656 114.59375 100.523438 C 116.085938 99.375 117.347656 95.476562 119.523438 93.988281 C 121.933594 92.496094 125.832031 90.890625 128.355469 91.808594 C 131.105469 92.726562 132.367188 98.917969 135.234375 100.179688 C 137.753906 101.210938 143.949219 99.835938 144.0625 99.261719 C 144.175781 99.03125 143.257812 98.574219 143.257812 98.574219 C 143.257812 98.574219 143.949219 99.148438 143.949219 99.492188 C 143.71875 100.066406 141.65625 101.097656 140.277344 101.441406 C 138.671875 101.785156 136.378906 102.015625 134.660156 101.210938 C 132.597656 99.949219 131.21875 94.789062 129.269531 93.644531 C 127.894531 92.839844 126.519531 92.839844 125.027344 92.957031 C 123.308594 93.183594 121.359375 93.875 119.867188 95.019531 C 118.035156 96.394531 116.886719 100.066406 115.398438 101.324219 C 114.363281 102.128906 113.5625 102.359375 112.300781 102.472656 C 110.238281 102.703125 107.257812 101.898438 104.046875 100.980469 C 99.34375 99.605469 92.695312 95.363281 86.960938 94.101562 C 81.800781 92.839844 76.296875 92.496094 71.710938 92.957031 C 67.582031 93.300781 63.457031 94.332031 60.359375 95.707031 C 57.835938 96.738281 56.574219 98.34375 54.054688 99.605469 C 50.5 101.324219 44.421875 103.621094 40.867188 104.421875 C 38.6875 104.996094 36.855469 105.109375 35.363281 104.996094 C 34.332031 104.996094 33.988281 104.996094 32.957031 104.421875 C 29.628906 102.585938 18.96875 89.058594 15.414062 87.679688 C 14.265625 87.335938 13.578125 87.453125 12.660156 87.910156 C 11.515625 88.484375 10.136719 91.695312 9.222656 91.925781 C 8.878906 91.925781 8.304688 91.234375 8.304688 91.234375 "/></clipPath><filter x="0%" y="0%" width="100%" filterUnits="objectBoundingBox" id="29850c0d60" height="100%"><feColorMatrix values="0 0 0 0 1 0 0 0 0 1 0 0 0 0 1 0 0 0 1 0" type="matrix" in="SourceGraphic"/></filter><clipPath id="db491196db"><path d="M 0.214844 0.574219 L 136.164062 0.574219 L 136.164062 19.09375 L 0.214844 19.09375 Z M 0.214844 0.574219 "/></clipPath><clipPath id="80c8c79dd4"><path d="M 0.304688 5.234375 C 5.347656 0.421875 6.496094 0.304688 7.984375 0.878906 C 10.851562 1.910156 15.78125 6.957031 18.765625 9.9375 C 21.285156 12.460938 23.351562 16.359375 25.183594 17.390625 C 26.101562 17.964844 26.675781 18.078125 27.824219 18.078125 C 30.6875 17.964844 37.570312 15.785156 42.039062 14.066406 C 46.28125 12.460938 50.296875 9.363281 54.195312 7.988281 C 57.40625 6.726562 60.042969 6.039062 63.597656 5.808594 C 68.066406 5.464844 73.914062 5.695312 79.074219 6.957031 C 84.808594 8.21875 91.917969 12.6875 96.617188 13.949219 C 99.714844 14.867188 102.582031 15.554688 104.414062 15.324219 C 105.332031 15.324219 105.792969 15.097656 106.59375 14.523438 C 108.085938 13.375 109.347656 9.476562 111.523438 7.988281 C 113.933594 6.496094 117.832031 4.890625 120.355469 5.808594 C 123.105469 6.726562 124.367188 12.917969 127.234375 14.179688 C 129.753906 15.210938 135.949219 13.835938 136.0625 13.261719 C 136.175781 13.03125 135.257812 12.574219 135.257812 12.574219 C 135.257812 12.574219 135.949219 13.148438 135.949219 13.492188 C 135.71875 14.066406 133.65625 15.097656 132.277344 15.441406 C 130.671875 15.785156 128.378906 16.015625 126.660156 15.210938 C 124.597656 13.949219 123.21875 8.789062 121.269531 7.644531 C 119.894531 6.839844 118.519531 6.839844 117.027344 6.957031 C 115.308594 7.183594 113.359375 7.875 111.867188 9.019531 C 110.035156 10.394531 108.886719 14.066406 107.398438 15.324219 C 106.363281 16.128906 105.5625 16.359375 104.300781 16.472656 C 102.238281 16.703125 99.257812 15.898438 96.046875 14.980469 C 91.34375 13.605469 84.695312 9.363281 78.960938 8.101562 C 73.800781 6.839844 68.296875 6.496094 63.710938 6.957031 C 59.582031 7.300781 55.457031 8.332031 52.359375 9.707031 C 49.835938 10.738281 48.574219 12.34375 46.054688 13.605469 C 42.5 15.324219 36.421875 17.621094 32.867188 18.421875 C 30.6875 18.996094 28.855469 19.109375 27.363281 18.996094 C 26.332031 18.996094 25.988281 18.996094 24.957031 18.421875 C 21.628906 16.585938 10.96875 3.058594 7.414062 1.679688 C 6.265625 1.335938 5.578125 1.453125 4.660156 1.910156 C 3.515625 2.484375 2.136719 5.695312 1.222656 5.925781 C 0.878906 5.925781 0.304688 5.234375 0.304688 5.234375 "/></clipPath><clipPath id="03cfc56bd0"><rect x="0" width="137" y="0" height="20"/></clipPath><clipPath id="d6dc3ee950"><path d="M 10.214844 103.695312 L 134.917969 103.695312 L 134.917969 119.269531 L 10.214844 119.269531 Z M 10.214844 103.695312 "/></clipPath><clipPath id="889ae8fed2"><path d="M 10.597656 103.734375 C 18.625 106.945312 20.6875 110.726562 23.09375 112.5625 C 25.160156 114.054688 26.992188 114.972656 29.402344 115.886719 C 32.269531 116.921875 36.050781 117.835938 39.261719 118.066406 C 42.128906 118.296875 44.535156 118.523438 47.632812 117.492188 C 52.5625 116.117188 59.441406 110.15625 64.832031 107.746094 C 69.1875 105.914062 73.890625 104.191406 77.328125 103.847656 C 79.621094 103.621094 81 103.734375 83.0625 104.421875 C 85.699219 105.109375 88.222656 107.402344 91.664062 108.664062 C 95.90625 110.382812 101.292969 111.988281 107.257812 112.675781 C 114.9375 113.59375 132.023438 109.695312 134.429688 112.332031 C 135.460938 113.25 134.316406 116.574219 134.203125 116.574219 C 133.972656 116.691406 134.429688 113.9375 133.398438 113.136719 C 130.53125 110.84375 113.792969 114.511719 107.027344 113.824219 C 102.667969 113.480469 100.148438 112.675781 96.363281 111.53125 C 92.121094 110.039062 86.386719 106.371094 82.949219 105.453125 C 81 104.878906 79.964844 104.765625 78.015625 104.878906 C 75.496094 105.109375 72.398438 105.914062 68.84375 107.289062 C 63.457031 109.46875 53.9375 116.117188 49.582031 117.953125 C 47.402344 118.753906 46.828125 119.097656 44.765625 119.214844 C 40.980469 119.441406 32.839844 118.179688 28.828125 116.921875 C 26.074219 116.003906 24.355469 114.972656 22.40625 113.367188 C 20.226562 111.761719 18.738281 108.433594 16.675781 106.945312 C 14.726562 105.683594 10.597656 105.570312 10.253906 104.765625 C 10.136719 104.421875 10.597656 103.734375 10.597656 103.734375 "/></clipPath><clipPath id="88ad1161f1"><path d="M 0.214844 0.695312 L 124.917969 0.695312 L 124.917969 16.269531 L 0.214844 16.269531 Z M 0.214844 0.695312 "/></clipPath><clipPath id="19df1af05e"><path d="M 0.597656 0.734375 C 8.625 3.945312 10.6875 7.726562 13.09375 9.5625 C 15.160156 11.054688 16.992188 11.972656 19.402344 12.886719 C 22.269531 13.921875 26.050781 14.835938 29.261719 15.066406 C 32.128906 15.296875 34.535156 15.523438 37.632812 14.492188 C 42.5625 13.117188 49.441406 7.15625 54.832031 4.746094 C 59.1875 2.914062 63.890625 1.191406 67.328125 0.847656 C 69.621094 0.621094 71 0.734375 73.0625 1.421875 C 75.699219 2.109375 78.222656 4.402344 81.664062 5.664062 C 85.90625 7.382812 91.292969 8.988281 97.257812 9.675781 C 104.9375 10.59375 122.023438 6.695312 124.429688 9.332031 C 125.460938 10.25 124.316406 13.574219 124.203125 13.574219 C 123.972656 13.691406 124.429688 10.9375 123.398438 10.136719 C 120.53125 7.84375 103.792969 11.511719 97.027344 10.824219 C 92.667969 10.480469 90.148438 9.675781 86.363281 8.53125 C 82.121094 7.039062 76.386719 3.371094 72.949219 2.453125 C 71 1.878906 69.964844 1.765625 68.015625 1.878906 C 65.496094 2.109375 62.398438 2.914062 58.84375 4.289062 C 53.457031 6.46875 43.9375 13.117188 39.582031 14.953125 C 37.402344 15.753906 36.828125 16.097656 34.765625 16.214844 C 30.980469 16.441406 22.839844 15.179688 18.828125 13.921875 C 16.074219 13.003906 14.355469 11.972656 12.40625 10.367188 C 10.226562 8.761719 8.738281 5.433594 6.675781 3.945312 C 4.726562 2.683594 0.597656 2.570312 0.253906 1.765625 C 0.136719 1.421875 0.597656 0.734375 0.597656 0.734375 "/></clipPath><clipPath id="b48ca4dc01"><rect x="0" width="125" y="0" height="17"/></clipPath><clipPath id="35cd6df3e0"><path d="M 4.847656 36 L 138 36 L 138 66.945312 L 4.847656 66.945312 Z M 4.847656 36 "/></clipPath><clipPath id="15b314cb57"><path d="M 5.09375 65.4375 C 20.113281 61.996094 23.210938 58.328125 27.566406 57.066406 C 32.496094 55.578125 41.554688 57.527344 44.652344 56.148438 C 46.027344 55.460938 46.601562 54.542969 47.171875 53.28125 C 48.207031 51.449219 47.058594 48.007812 48.664062 45.832031 C 51.300781 42.503906 59.558594 39.410156 64.832031 38.378906 C 69.304688 37.34375 73.203125 37.804688 78.246094 38.492188 C 85.242188 39.410156 95.675781 43.308594 102.324219 44.453125 C 106.910156 45.257812 110.808594 45.714844 114.25 45.832031 C 117.003906 45.832031 119.066406 45.945312 121.589844 45.027344 C 124.683594 43.882812 128.355469 39.523438 131.335938 38.035156 C 133.511719 37 136.839844 35.738281 137.640625 36.199219 C 137.984375 36.3125 137.984375 37.230469 137.984375 37.230469 C 137.984375 37.230469 137.640625 36.199219 137.527344 36.199219 C 137.527344 36.199219 138.101562 36.886719 137.871094 37.230469 C 137.527344 38.035156 134.203125 37.917969 132.023438 38.949219 C 128.699219 40.554688 125.027344 45.371094 120.441406 46.632812 C 115.167969 48.125 108.515625 46.632812 102.097656 45.601562 C 94.527344 44.453125 85.125 40.441406 78.246094 39.636719 C 73.085938 38.949219 69.074219 38.492188 64.601562 39.523438 C 59.441406 40.671875 51.53125 43.996094 49.238281 47.207031 C 47.863281 49.15625 49.121094 52.023438 48.320312 53.742188 C 47.519531 55.347656 46.601562 56.492188 44.765625 57.296875 C 41.210938 58.785156 32.613281 56.835938 27.222656 58.214844 C 22.292969 59.703125 17.707031 64.175781 13.578125 65.550781 C 10.480469 66.46875 5.78125 67.273438 5.09375 66.582031 C 4.75 66.355469 5.09375 65.4375 5.09375 65.4375 "/></clipPath><clipPath id="8f371e1769"><path d="M 0.847656 0 L 134 0 L 134 30.945312 L 0.847656 30.945312 Z M 0.847656 0 "/></clipPath><clipPath id="5e292fba3d"><path d="M 1.09375 29.4375 C 16.113281 25.996094 19.210938 22.328125 23.566406 21.066406 C 28.496094 19.578125 37.554688 21.527344 40.652344 20.148438 C 42.027344 19.460938 42.601562 18.542969 43.171875 17.28125 C 44.207031 15.449219 43.058594 12.007812 44.664062 9.832031 C 47.300781 6.503906 55.558594 3.410156 60.832031 2.378906 C 65.304688 1.34375 69.203125 1.804688 74.246094 2.492188 C 81.242188 3.410156 91.675781 7.308594 98.324219 8.453125 C 102.910156 9.257812 106.808594 9.714844 110.25 9.832031 C 113.003906 9.832031 115.066406 9.945312 117.589844 9.027344 C 120.683594 7.882812 124.355469 3.523438 127.335938 2.035156 C 129.511719 1 132.839844 -0.261719 133.640625 0.199219 C 133.984375 0.3125 133.984375 1.230469 133.984375 1.230469 C 133.984375 1.230469 133.640625 0.199219 133.527344 0.199219 C 133.527344 0.199219 134.101562 0.886719 133.871094 1.230469 C 133.527344 2.035156 130.203125 1.917969 128.023438 2.949219 C 124.699219 4.554688 121.027344 9.371094 116.441406 10.632812 C 111.167969 12.125 104.515625 10.632812 98.097656 9.601562 C 90.527344 8.453125 81.125 4.441406 74.246094 3.636719 C 69.085938 2.949219 65.074219 2.492188 60.601562 3.523438 C 55.441406 4.671875 47.53125 7.996094 45.238281 11.207031 C 43.863281 13.15625 45.121094 16.023438 44.320312 17.742188 C 43.519531 19.347656 42.601562 20.492188 40.765625 21.296875 C 37.210938 22.785156 28.613281 20.835938 23.222656 22.214844 C 18.292969 23.703125 13.707031 28.175781 9.578125 29.550781 C 6.480469 30.46875 1.78125 31.273438 1.09375 30.582031 C 0.75 30.355469 1.09375 29.4375 1.09375 29.4375 "/></clipPath><clipPath id="96fc1e42e0"><rect x="0" width="134" y="0" height="31"/></clipPath><clipPath id="0efc92555f"><path d="M 10.71875 18.433594 L 127.835938 18.433594 L 127.835938 44.21875 L 10.71875 44.21875 Z M 10.71875 18.433594 "/></clipPath><clipPath id="ff4c79e210"><path d="M 10.828125 42.847656 C 42.703125 26.109375 43.160156 26.335938 44.308594 26.796875 C 46.257812 27.484375 48.433594 31.613281 51.417969 31.839844 C 56.117188 31.957031 65.40625 22.324219 69.875 21.179688 C 72.285156 20.488281 73.660156 20.375 75.609375 21.179688 C 78.363281 22.324219 81 28.058594 84.09375 29.664062 C 86.730469 31.152344 90.058594 31.152344 92.695312 31.152344 C 95.101562 31.269531 96.9375 31.269531 99.574219 30.351562 C 103.929688 28.859375 110.8125 22.667969 115.511719 20.71875 C 118.722656 19.457031 122.046875 18.195312 124.226562 18.539062 C 125.714844 18.769531 127.4375 21.0625 127.664062 20.835938 C 127.894531 20.71875 127.664062 19.800781 127.550781 19.800781 C 127.550781 19.800781 127.664062 20.71875 127.4375 20.949219 C 126.863281 21.292969 124.457031 19.574219 122.851562 19.574219 C 121.128906 19.574219 119.867188 20.144531 117.691406 21.0625 C 113.449219 22.898438 104.847656 29.890625 99.6875 31.496094 C 96.25 32.53125 93.152344 32.414062 90.515625 32.300781 C 88.453125 32.183594 87.074219 32.300781 85.125 31.382812 C 82.144531 29.890625 78.363281 23.472656 75.378906 22.324219 C 73.546875 21.523438 72.285156 21.636719 70.105469 22.210938 C 65.632812 23.355469 55.316406 33.332031 51.070312 32.988281 C 48.664062 32.757812 47.519531 29.664062 45.683594 28.859375 C 44.191406 28.058594 43.046875 27.484375 41.097656 27.714844 C 37.3125 28.058594 30.089844 32.875 25.386719 35.625 C 21.375 38.035156 17.132812 41.816406 14.378906 43.078125 C 13.003906 43.765625 11.398438 44.339844 10.941406 43.996094 C 10.710938 43.882812 10.828125 42.847656 10.828125 42.847656 "/></clipPath><clipPath id="e9d573fb6e"><path d="M 0.71875 0.433594 L 117.835938 0.433594 L 117.835938 26.21875 L 0.71875 26.21875 Z M 0.71875 0.433594 "/></clipPath><clipPath id="23c85b2efe"><path d="M 0.828125 24.847656 C 32.703125 8.109375 33.160156 8.335938 34.308594 8.796875 C 36.257812 9.484375 38.433594 13.613281 41.417969 13.839844 C 46.117188 13.957031 55.40625 4.324219 59.875 3.179688 C 62.285156 2.488281 63.660156 2.375 65.609375 3.179688 C 68.363281 4.324219 71 10.058594 74.09375 11.664062 C 76.730469 13.152344 80.058594 13.152344 82.695312 13.152344 C 85.101562 13.269531 86.9375 13.269531 89.574219 12.351562 C 93.929688 10.859375 100.8125 4.667969 105.511719 2.71875 C 108.722656 1.457031 112.046875 0.195312 114.226562 0.539062 C 115.714844 0.769531 117.4375 3.0625 117.664062 2.835938 C 117.894531 2.71875 117.664062 1.800781 117.550781 1.800781 C 117.550781 1.800781 117.664062 2.71875 117.4375 2.949219 C 116.863281 3.292969 114.457031 1.574219 112.851562 1.574219 C 111.128906 1.574219 109.867188 2.144531 107.691406 3.0625 C 103.449219 4.898438 94.847656 11.890625 89.6875 13.496094 C 86.25 14.53125 83.152344 14.414062 80.515625 14.300781 C 78.453125 14.183594 77.074219 14.300781 75.125 13.382812 C 72.144531 11.890625 68.363281 5.472656 65.378906 4.324219 C 63.546875 3.523438 62.285156 3.636719 60.105469 4.210938 C 55.632812 5.355469 45.316406 15.332031 41.070312 14.988281 C 38.664062 14.757812 37.519531 11.664062 35.683594 10.859375 C 34.191406 10.058594 33.046875 9.484375 31.097656 9.714844 C 27.3125 10.058594 20.089844 14.875 15.386719 17.625 C 11.375 20.035156 7.132812 23.816406 4.378906 25.078125 C 3.003906 25.765625 1.398438 26.339844 0.941406 25.996094 C 0.710938 25.882812 0.828125 24.847656 0.828125 24.847656 "/></clipPath><clipPath id="f7a73f3c52"><rect x="0" width="118" y="0" height="27"/></clipPath><clipPath id="3a2c4c1232"><path d="M 36.042969 6.425781 L 108.949219 6.425781 L 108.949219 15.21875 L 36.042969 15.21875 Z M 36.042969 6.425781 "/></clipPath><clipPath id="1b9bbd0b95"><path d="M 108.746094 7.761719 C 91.089844 12.003906 84.667969 10.054688 78.820312 9.828125 C 73.085938 9.597656 66.667969 9.023438 61.277344 9.941406 C 56.460938 10.859375 52.21875 14.070312 47.746094 14.757812 C 43.847656 15.332031 37.425781 15.332031 36.394531 14.414062 C 36.050781 14.183594 35.9375 13.609375 36.167969 13.382812 C 37.082031 12.347656 46.027344 14.070312 50.269531 13.265625 C 54.28125 12.464844 57.035156 9.710938 61.164062 8.910156 C 66.09375 7.878906 72.515625 8.449219 78.246094 8.679688 C 83.980469 8.910156 90.628906 10.972656 95.675781 10.398438 C 99.574219 9.941406 103.703125 7.304688 106.109375 6.84375 C 107.257812 6.617188 108.632812 6.273438 108.859375 6.617188 C 109.089844 6.84375 108.746094 7.761719 108.746094 7.761719 "/></clipPath><clipPath id="6b0f4377c4"><path d="M 0.0429688 0.425781 L 72.949219 0.425781 L 72.949219 9.21875 L 0.0429688 9.21875 Z M 0.0429688 0.425781 "/></clipPath><clipPath id="125c45d0c8"><path d="M 72.746094 1.761719 C 55.089844 6.003906 48.667969 4.054688 42.820312 3.828125 C 37.085938 3.597656 30.667969 3.023438 25.277344 3.941406 C 20.460938 4.859375 16.21875 8.070312 11.746094 8.757812 C 7.847656 9.332031 1.425781 9.332031 0.394531 8.414062 C 0.0507812 8.183594 -0.0625 7.609375 0.167969 7.382812 C 1.082031 6.347656 10.027344 8.070312 14.269531 7.265625 C 18.28125 6.464844 21.035156 3.710938 25.164062 2.910156 C 30.09375 1.878906 36.515625 2.449219 42.246094 2.679688 C 47.980469 2.910156 54.628906 4.972656 59.675781 4.398438 C 63.574219 3.941406 67.703125 1.304688 70.109375 0.84375 C 71.257812 0.617188 72.632812 0.273438 72.859375 0.617188 C 73.089844 0.84375 72.746094 1.761719 72.746094 1.761719 "/></clipPath><clipPath id="b4f7dac30d"><rect x="0" width="73" y="0" height="10"/></clipPath><clipPath id="ab04eb3419"><path d="M 38.761719 120.851562 L 118.867188 120.851562 L 118.867188 131.902344 L 38.761719 131.902344 Z M 38.761719 120.851562 "/></clipPath><clipPath id="86e17ff41a"><path d="M 38.804688 130.792969 C 48.433594 127.125 53.480469 126.550781 57.378906 126.320312 C 60.820312 126.207031 63.800781 126.320312 67.011719 126.894531 C 70.335938 127.355469 74.003906 128.960938 77.214844 129.304688 C 79.851562 129.648438 81.6875 129.875 84.667969 129.304688 C 89.367188 128.269531 97.28125 122.652344 101.980469 121.507812 C 104.847656 120.820312 107.257812 120.703125 109.433594 121.046875 C 111.382812 121.390625 113.105469 121.734375 114.480469 123.113281 C 116.429688 124.832031 119.066406 131.710938 118.835938 131.824219 C 118.722656 131.941406 115.167969 124.71875 113.21875 123.226562 C 111.957031 122.421875 110.925781 122.308594 109.433594 122.195312 C 107.484375 121.964844 105.191406 121.851562 102.441406 122.539062 C 97.738281 123.683594 89.253906 129.304688 84.78125 130.335938 C 82.144531 131.023438 81 130.679688 78.246094 130.566406 C 73.546875 130.21875 64.832031 127.582031 58.984375 127.46875 C 54.054688 127.355469 49.007812 128.15625 45.453125 129.1875 C 42.929688 129.875 39.949219 132.167969 39.148438 131.824219 C 38.804688 131.710938 38.804688 130.792969 38.804688 130.792969 "/></clipPath><clipPath id="f2e618cca4"><path d="M 0.761719 0.851562 L 80.867188 0.851562 L 80.867188 11.902344 L 0.761719 11.902344 Z M 0.761719 0.851562 "/></clipPath><clipPath id="0de8b7fc74"><path d="M 0.804688 10.792969 C 10.433594 7.125 15.480469 6.550781 19.378906 6.320312 C 22.820312 6.207031 25.800781 6.320312 29.011719 6.894531 C 32.335938 7.355469 36.003906 8.960938 39.214844 9.304688 C 41.851562 9.648438 43.6875 9.875 46.667969 9.304688 C 51.367188 8.269531 59.28125 2.652344 63.980469 1.507812 C 66.847656 0.820312 69.257812 0.703125 71.433594 1.046875 C 73.382812 1.390625 75.105469 1.734375 76.480469 3.113281 C 78.429688 4.832031 81.066406 11.710938 80.835938 11.824219 C 80.722656 11.941406 77.167969 4.71875 75.21875 3.226562 C 73.957031 2.421875 72.925781 2.308594 71.433594 2.195312 C 69.484375 1.964844 67.191406 1.851562 64.441406 2.539062 C 59.738281 3.683594 51.253906 9.304688 46.78125 10.335938 C 44.144531 11.023438 43 10.679688 40.246094 10.566406 C 35.546875 10.21875 26.832031 7.582031 20.984375 7.46875 C 16.054688 7.355469 11.007812 8.15625 7.453125 9.1875 C 4.929688 9.875 1.949219 12.167969 1.148438 11.824219 C 0.804688 11.710938 0.804688 10.792969 0.804688 10.792969 "/></clipPath><clipPath id="8be4f5d5e9"><rect x="0" width="81" y="0" height="12"/></clipPath><clipPath id="bd49ed55b3"><path d="M 56.367188 130.355469 L 102.585938 130.355469 L 102.585938 141.472656 L 56.367188 141.472656 Z M 56.367188 130.355469 "/></clipPath><clipPath id="73ff2c8d92"><path d="M 56.574219 139.507812 C 64.027344 136.757812 67.8125 132.285156 70.566406 131.136719 C 72.285156 130.335938 74.117188 130.335938 75.496094 130.449219 C 76.414062 130.449219 77.101562 130.566406 77.902344 131.136719 C 79.277344 132.167969 80.425781 135.953125 81.800781 137.214844 C 82.71875 138.246094 83.175781 138.707031 84.667969 139.164062 C 87.878906 140.195312 100.71875 138.363281 102.210938 139.507812 C 102.667969 139.738281 102.554688 140.539062 102.554688 140.539062 C 102.554688 140.539062 102.210938 139.507812 102.210938 139.507812 C 102.097656 139.507812 102.554688 140.3125 102.210938 140.65625 C 101.179688 141.800781 88.222656 141.570312 84.554688 140.3125 C 82.71875 139.738281 82.03125 138.933594 80.769531 137.789062 C 79.164062 136.296875 78.132812 132.398438 76.183594 131.597656 C 74.464844 130.792969 72.398438 131.367188 70.21875 132.285156 C 67.011719 133.546875 62.308594 138.933594 59.671875 140.082031 C 58.410156 140.539062 56.804688 140.882812 56.460938 140.65625 C 56.230469 140.425781 56.574219 139.507812 56.574219 139.507812 "/></clipPath><clipPath id="f5b9bd8fe1"><path d="M 0.367188 0.355469 L 46.585938 0.355469 L 46.585938 11.472656 L 0.367188 11.472656 Z M 0.367188 0.355469 "/></clipPath><clipPath id="bb31abe0e9"><path d="M 0.574219 9.507812 C 8.027344 6.757812 11.8125 2.285156 14.566406 1.136719 C 16.285156 0.335938 18.117188 0.335938 19.496094 0.449219 C 20.414062 0.449219 21.101562 0.566406 21.902344 1.136719 C 23.277344 2.167969 24.425781 5.953125 25.800781 7.214844 C 26.71875 8.246094 27.175781 8.707031 28.667969 9.164062 C 31.878906 10.195312 44.71875 8.363281 46.210938 9.507812 C 46.667969 9.738281 46.554688 10.539062 46.554688 10.539062 C 46.554688 10.539062 46.210938 9.507812 46.210938 9.507812 C 46.097656 9.507812 46.554688 10.3125 46.210938 10.65625 C 45.179688 11.800781 32.222656 11.570312 28.554688 10.3125 C 26.71875 9.738281 26.03125 8.933594 24.769531 7.789062 C 23.164062 6.296875 22.132812 2.398438 20.183594 1.597656 C 18.464844 0.792969 16.398438 1.367188 14.21875 2.285156 C 11.011719 3.546875 6.308594 8.933594 3.671875 10.082031 C 2.410156 10.539062 0.804688 10.882812 0.460938 10.65625 C 0.230469 10.425781 0.574219 9.507812 0.574219 9.507812 "/></clipPath><clipPath id="181a9c17d3"><rect x="0" width="47" y="0" height="12"/></clipPath><clipPath id="3929520b4d"><path d="M 3.847656 42.585938 L 148 42.585938 L 148 91.890625 L 3.847656 91.890625 Z M 3.847656 42.585938 "/></clipPath><clipPath id="f5e2045263"><path d="M 76 19.78125 L 83 19.78125 L 83 31 L 76 31 Z M 76 19.78125 "/></clipPath><clipPath id="155dac5cff"><path d="M 86 36 L 91 36 L 91 38.125 L 86 38.125 Z M 86 36 "/></clipPath><clipPath id="dc25f3f7ca"><path d="M 50.609375 36 L 55 36 L 55 38 L 50.609375 38 Z M 50.609375 36 "/></clipPath></defs><g id="e2f5bbd2a8"><g clip-rule="nonzero" clip-path="url(#41c201deb4)"><g clip-rule="nonzero" clip-path="url(#4d72ed2395)"><path style=" stroke:none;fill-rule:nonzero;fill:#202424;fill-opacity:1;" d="M 3.847656 0 L 148.773438 0 L 148.773438 144.921875 L 3.847656 144.921875 Z M 3.847656 0 "/></g></g><g clip-rule="nonzero" clip-path="url(#324832f504)"><g clip-rule="nonzero" clip-path="url(#1eb7d88d76)"><g mask="url(#c0fd95dfd4)" transform="matrix(1,0,0,1,8,86)"><g clip-path="url(#03cfc56bd0)"><g clip-rule="nonzero" clip-path="url(#db491196db)"><g clip-rule="nonzero" clip-path="url(#80c8c79dd4)"><rect x="0" width="137" height="20" y="0" style="fill:#727880;fill-opacity:1;stroke:none;"/></g></g></g><mask id="c0fd95dfd4"><g filter="url(#29850c0d60)"><rect x="0" width="150" y="0" height="147.000002" style="fill:#000000;fill-opacity:0.61;stroke:none;"/></g></mask></g></g></g><g clip-rule="nonzero" clip-path="url(#d6dc3ee950)"><g clip-rule="nonzero" clip-path="url(#889ae8fed2)"><g mask="url(#a1e63b9d2f)" transform="matrix(1,0,0,1,10,103)"><g clip-path="url(#b48ca4dc01)"><g clip-rule="nonzero" clip-path="url(#88ad1161f1)"><g clip-rule="nonzero" clip-path="url(#19df1af05e)"><rect x="0" width="125" height="17" y="0" style="fill:#727880;fill-opacity:1;stroke:none;"/></g></g></g><mask id="a1e63b9d2f"><g filter="url(#29850c0d60)"><rect x="0" width="150" y="0" height="147.000002" style="fill:#000000;fill-opacity:0.61;stroke:none;"/></g></mask></g></g></g><g clip-rule="nonzero" clip-path="url(#35cd6df3e0)"><g clip-rule="nonzero" clip-path="url(#15b314cb57)"><g mask="url(#b16a0cc786)" transform="matrix(1,0,0,1,4,36)"><g clip-path="url(#96fc1e42e0)"><g clip-rule="nonzero" clip-path="url(#8f371e1769)"><g clip-rule="nonzero" clip-path="url(#5e292fba3d)"><rect x="0" width="134" height="31" y="0" style="fill:#727880;fill-opacity:1;stroke:none;"/></g></g></g><mask id="b16a0cc786"><g filter="url(#29850c0d60)"><rect x="0" width="150" y="0" height="147.000002" style="fill:#000000;fill-opacity:0.61;stroke:none;"/></g></mask></g></g></g><g clip-rule="nonzero" clip-path="url(#0efc92555f)"><g clip-rule="nonzero" clip-path="url(#ff4c79e210)"><g mask="url(#af6bb78bb8)" transform="matrix(1,0,0,1,10,18)"><g clip-path="url(#f7a73f3c52)"><g clip-rule="nonzero" clip-path="url(#e9d573fb6e)"><g clip-rule="nonzero" clip-path="url(#23c85b2efe)"><rect x="0" width="118" height="27" y="0" style="fill:#727880;fill-opacity:1;stroke:none;"/></g></g></g><mask id="af6bb78bb8"><g filter="url(#29850c0d60)"><rect x="0" width="150" y="0" height="147.000002" style="fill:#000000;fill-opacity:0.61;stroke:none;"/></g></mask></g></g></g><g clip-rule="nonzero" clip-path="url(#3a2c4c1232)"><g clip-rule="nonzero" clip-path="url(#1b9bbd0b95)"><g mask="url(#59fd822a2d)" transform="matrix(1,0,0,1,36,6)"><g clip-path="url(#b4f7dac30d)"><g clip-rule="nonzero" clip-path="url(#6b0f4377c4)"><g clip-rule="nonzero" clip-path="url(#125c45d0c8)"><rect x="0" width="73" height="10" y="0" style="fill:#727880;fill-opacity:1;stroke:none;"/></g></g></g><mask id="59fd822a2d"><g filter="url(#29850c0d60)"><rect x="0" width="150" y="0" height="147.000002" style="fill:#000000;fill-opacity:0.61;stroke:none;"/></g></mask></g></g></g><g clip-rule="nonzero" clip-path="url(#ab04eb3419)"><g clip-rule="nonzero" clip-path="url(#86e17ff41a)"><g mask="url(#ed76062c2e)" transform="matrix(1,0,0,1,38,120)"><g clip-path="url(#8be4f5d5e9)"><g clip-rule="nonzero" clip-path="url(#f2e618cca4)"><g clip-rule="nonzero" clip-path="url(#0de8b7fc74)"><rect x="0" width="81" height="12" y="0" style="fill:#727880;fill-opacity:1;stroke:none;"/></g></g></g><mask id="ed76062c2e"><g filter="url(#29850c0d60)"><rect x="0" width="150" y="0" height="147.000002" style="fill:#000000;fill-opacity:0.61;stroke:none;"/></g></mask></g></g></g><g clip-rule="nonzero" clip-path="url(#bd49ed55b3)"><g clip-rule="nonzero" clip-path="url(#73ff2c8d92)"><g mask="url(#25072483fc)" transform="matrix(1,0,0,1,56,130)"><g clip-path="url(#181a9c17d3)"><g clip-rule="nonzero" clip-path="url(#f5b9bd8fe1)"><g clip-rule="nonzero" clip-path="url(#bb31abe0e9)"><rect x="0" width="47" height="12" y="0" style="fill:#727880;fill-opacity:1;stroke:none;"/></g></g></g><mask id="25072483fc"><g filter="url(#29850c0d60)"><rect x="0" width="150" y="0" height="147.000002" style="fill:#000000;fill-opacity:0.61;stroke:none;"/></g></mask></g></g></g><g clip-rule="nonzero" clip-path="url(#3929520b4d)"><path style=" stroke:none;fill-rule:evenodd;fill:#faf7e0;fill-opacity:1;" d="M 64.914062 42.875 C 63.738281 43.273438 62.835938 45.1875 63.1875 46.542969 C 63.367188 47.246094 63.644531 47.457031 65.144531 48.050781 C 66.882812 48.742188 68.460938 49.523438 69.132812 50.03125 C 71.660156 51.945312 72.890625 54.621094 73.972656 60.5625 C 74.503906 63.476562 74.597656 64.40625 74.800781 68.636719 C 74.949219 71.757812 74.980469 72.179688 75.246094 74.363281 C 75.511719 76.566406 75.554688 78.292969 75.359375 78.859375 C 75.207031 79.296875 75.089844 78.730469 74.871094 76.496094 C 74.804688 75.828125 74.699219 74.792969 74.636719 74.199219 C 74.519531 73.070312 74.484375 72.5625 74.328125 69.316406 C 74.019531 62.910156 73.203125 59.957031 69.894531 53.335938 C 68.5 50.542969 68.015625 49.984375 66.117188 49.003906 C 65.210938 48.535156 65.074219 48.484375 60.273438 46.816406 C 59.394531 46.507812 57.9375 45.996094 57.035156 45.675781 C 51.238281 43.605469 50.980469 43.632812 52.449219 46.179688 C 53.484375 47.984375 54.335938 49.746094 55.652344 52.820312 C 56.777344 55.445312 57.226562 56.796875 58.136719 60.253906 C 59.507812 65.464844 59.445312 65.394531 64.238281 67.097656 C 68.625 68.652344 71.257812 70.289062 72.523438 72.246094 C 73.703125 74.070312 74.398438 78.050781 73.710938 79.023438 L 73.617188 79.15625 L 73.199219 78.539062 C 71.539062 76.070312 68.390625 73.671875 65.75 72.863281 C 63.324219 72.117188 60.960938 72.6875 58.738281 74.546875 C 58.082031 75.09375 57.648438 75.585938 55.839844 77.828125 C 54.605469 79.359375 54.179688 79.386719 54.332031 77.929688 C 54.824219 73.292969 58.675781 70.238281 63.617188 70.566406 C 66.851562 70.777344 68.734375 71.9375 70.867188 75.019531 C 71.429688 75.832031 71.617188 76.054688 71.839844 76.167969 C 72.628906 76.574219 72.640625 75.246094 71.867188 73.703125 C 69.816406 69.609375 64.105469 67.855469 58.160156 69.484375 C 56.671875 69.894531 55.433594 70.371094 53.445312 71.300781 C 50.210938 72.8125 50.167969 72.8125 47.214844 71.425781 C 45.316406 70.53125 44.546875 70.21875 42.121094 69.359375 C 41.25 69.054688 40.539062 68.78125 40.539062 68.757812 C 40.539062 68.570312 41.460938 67.605469 42.121094 67.105469 C 44.339844 65.429688 47.058594 64.71875 50.632812 64.878906 C 53.136719 64.992188 53.9375 65.101562 56.636719 65.691406 C 58.617188 66.125 59.144531 66.121094 59.144531 65.683594 C 59.144531 65.339844 58.566406 64.867188 57.386719 64.253906 C 53.230469 62.085938 47.105469 62.25 40.539062 64.703125 C 38.347656 65.519531 37.273438 66.28125 37.214844 67.042969 C 37.164062 67.796875 37.542969 68.125 39.171875 68.734375 C 39.628906 68.90625 39.902344 69.03125 39.898438 69.070312 C 39.894531 69.101562 39.84375 69.296875 39.792969 69.5 C 39.652344 70.023438 39.660156 70.714844 39.804688 71.464844 C 39.976562 72.335938 39.984375 72.414062 39.933594 72.609375 C 39.792969 73.125 39.554688 73.195312 37.839844 73.242188 C 35.617188 73.300781 34.703125 73.550781 34.082031 74.265625 L 33.984375 74.378906 L 33.929688 74.230469 C 33.867188 74.050781 33.621094 74.011719 33.570312 74.167969 C 33.53125 74.296875 34.550781 76.886719 35.847656 79.949219 C 36.214844 80.8125 36.613281 81.761719 36.738281 82.058594 C 38.089844 85.320312 39.285156 87.59375 40.121094 88.511719 C 41.054688 89.53125 41.867188 89.613281 44.480469 88.960938 C 45.191406 88.78125 46.488281 88.488281 47.367188 88.304688 C 49.929688 87.765625 51.0625 87.484375 52.949219 86.914062 C 54.472656 86.457031 61.757812 84.039062 63.722656 83.335938 C 66.902344 82.203125 67.6875 81.980469 70.550781 81.378906 C 71.433594 81.195312 71.761719 81.171875 72.078125 81.273438 C 72.195312 81.3125 72.332031 81.34375 72.382812 81.347656 C 72.691406 81.355469 73.242188 81.539062 73.632812 81.757812 C 74.238281 82.101562 74.589844 82.4375 75.363281 83.421875 C 76.371094 84.703125 77.605469 85.371094 78.808594 85.28125 C 79.414062 85.238281 80.355469 84.960938 82.050781 84.324219 C 82.945312 83.992188 84.402344 83.472656 85.265625 83.183594 C 86.726562 82.695312 90.507812 81.835938 91.671875 81.730469 C 92.894531 81.621094 94.21875 81.421875 96.261719 81.046875 C 98.539062 80.628906 99.503906 80.53125 101.644531 80.488281 C 102.25 80.476562 103.15625 80.441406 103.65625 80.414062 C 104.316406 80.378906 104.679688 80.378906 104.992188 80.417969 C 105.703125 80.503906 106.085938 80.609375 105.886719 80.667969 C 105.460938 80.789062 104.855469 80.898438 104.0625 81 C 103.1875 81.109375 102.457031 81.191406 97.351562 81.753906 C 95.457031 81.964844 93.164062 82.25 92.609375 82.34375 C 89.292969 82.914062 86.238281 83.789062 82.730469 85.179688 C 81.175781 85.796875 80.527344 86.140625 80.59375 86.316406 C 80.625 86.40625 79.359375 86.398438 78.804688 86.308594 C 77.332031 86.066406 76.386719 85.378906 74.964844 83.515625 C 73.449219 81.523438 72.222656 81.582031 66.9375 83.914062 C 64.011719 85.207031 61.3125 86.125 57.277344 87.203125 C 56.449219 87.425781 54.808594 87.871094 53.632812 88.191406 C 52.457031 88.515625 50.84375 88.953125 50.042969 89.171875 C 49.242188 89.386719 48.015625 89.734375 47.320312 89.945312 C 41.007812 91.84375 39.914062 91.546875 38.613281 87.597656 C 36.925781 82.488281 35.515625 80.027344 33.996094 79.527344 C 32.347656 78.988281 31.640625 80.082031 31.832031 82.875 C 32.003906 85.367188 31.746094 86.613281 30.867188 87.507812 C 29.339844 89.074219 27.132812 87.667969 22.914062 82.4375 C 21.03125 80.105469 19.550781 78.863281 18.347656 78.609375 C 17.441406 78.414062 17.011719 78.507812 14.667969 79.402344 C 11.914062 80.457031 9.308594 80.660156 6.300781 80.0625 C 5.375 79.878906 4.558594 79.5625 4.359375 79.3125 C 4.15625 79.050781 3.851562 79.160156 3.988281 79.445312 C 4.433594 80.382812 8.84375 81.0625 11.628906 80.625 C 12.90625 80.421875 13.96875 80.113281 15.617188 79.464844 C 16.671875 79.050781 16.980469 78.960938 17.457031 78.929688 C 18.941406 78.828125 20.113281 79.730469 22.957031 83.160156 C 26.71875 87.6875 28.464844 88.9375 30.253906 88.371094 C 31.832031 87.871094 32.429688 86.15625 32.199219 82.785156 C 32.023438 80.21875 32.746094 79.226562 34.195312 80.050781 C 35.351562 80.703125 36.910156 83.613281 38.125 87.378906 C 38.785156 89.417969 39.089844 90.050781 39.714844 90.671875 C 40.761719 91.707031 42.769531 91.6875 46.429688 90.609375 C 46.6875 90.53125 47.375 90.332031 47.953125 90.160156 C 48.535156 89.988281 49.71875 89.65625 50.582031 89.421875 C 51.445312 89.1875 52.792969 88.820312 53.574219 88.601562 C 54.355469 88.386719 55.144531 88.167969 55.332031 88.117188 C 58.335938 87.324219 59.136719 87.101562 60.15625 86.792969 C 63.285156 85.84375 64.964844 85.234375 67.242188 84.21875 C 72.257812 81.992188 73.253906 81.941406 74.679688 83.84375 C 76.082031 85.710938 77.089844 86.410156 78.78125 86.6875 C 80.121094 86.910156 83.554688 86.515625 87.074219 85.742188 C 93.703125 84.285156 94.609375 84.113281 100.148438 83.28125 C 109.816406 81.824219 109.953125 81.757812 110.984375 77.773438 C 111.867188 74.363281 113.914062 73.046875 115.730469 74.730469 C 116.171875 75.136719 116.4375 75.53125 117.039062 76.6875 C 118.613281 79.683594 119.890625 81.496094 121.054688 82.378906 C 123.121094 83.945312 126.105469 83.414062 128.449219 81.066406 C 129.875 79.636719 130.828125 77.945312 132.433594 73.980469 C 134.15625 69.734375 135.03125 68.21875 136.242188 67.382812 C 138.734375 65.667969 141.207031 66.914062 144.964844 71.78125 C 146.605469 73.90625 147.160156 74.453125 147.621094 74.402344 C 147.824219 74.378906 147.851562 74.097656 147.652344 74.054688 C 147.539062 74.027344 147.367188 73.917969 147.132812 73.730469 C 147.007812 73.628906 145.898438 72.285156 145.269531 71.476562 C 141.722656 66.902344 139.386719 65.570312 136.757812 66.621094 C 135.078125 67.296875 134.074219 68.828125 132.09375 73.753906 C 129.804688 79.449219 127.902344 81.875 125.089844 82.691406 C 122.195312 83.53125 120.390625 82.082031 117.433594 76.542969 C 116.738281 75.242188 116.542969 74.9375 116.101562 74.503906 C 114.75 73.160156 112.832031 73.429688 111.617188 75.136719 C 111.179688 75.753906 110.976562 76.269531 110.585938 77.785156 C 109.652344 81.390625 109.410156 81.507812 100.097656 82.90625 C 94.929688 83.679688 94.460938 83.761719 91.484375 84.40625 C 86.757812 85.429688 85.753906 85.636719 84.164062 85.910156 C 83.222656 86.070312 81.335938 86.335938 81.167969 86.328125 C 80.609375 86.304688 85.753906 84.410156 88.339844 83.683594 C 91.210938 82.878906 92.53125 82.667969 99.320312 81.917969 C 103.414062 81.464844 105.324219 81.234375 105.445312 81.171875 C 105.484375 81.148438 105.613281 81.117188 105.730469 81.097656 C 106.957031 80.898438 106.535156 80.042969 105.207031 80.042969 L 104.964844 80.042969 L 105.144531 79.917969 C 105.625 79.59375 105.757812 79.019531 105.542969 78.207031 C 105.390625 77.628906 104.015625 73.519531 103.859375 73.179688 C 103.417969 72.203125 102.378906 71.40625 101.554688 71.40625 C 101.519531 71.40625 101.382812 71.316406 101.25 71.203125 C 100.335938 70.429688 96.769531 68 95.753906 67.457031 C 93.140625 66.0625 91.179688 66.878906 85.359375 71.777344 C 84.5 72.503906 84.132812 72.820312 82.753906 74.035156 C 79.417969 76.976562 77.910156 78.230469 76.941406 78.863281 C 76.5 79.148438 76.460938 79.15625 76.578125 78.921875 C 77.179688 77.742188 79.378906 75.519531 83.789062 71.636719 C 85.421875 70.199219 86.957031 68.820312 87.496094 68.308594 C 87.863281 67.957031 88.28125 67.566406 89.066406 66.828125 C 89.511719 66.410156 90.285156 65.671875 91.0625 64.921875 C 93.824219 62.257812 95.140625 61.417969 98.21875 60.351562 C 99.976562 59.742188 100.191406 59.40625 99.367188 58.539062 C 99.234375 58.398438 98.847656 57.980469 98.503906 57.605469 C 96.578125 55.515625 95.839844 55.605469 93.480469 58.226562 C 92.976562 58.785156 92.5 59.3125 92.421875 59.398438 C 92.34375 59.484375 91.964844 59.914062 91.582031 60.351562 C 91.199219 60.792969 90.59375 61.476562 90.242188 61.878906 C 89.257812 62.996094 87.808594 64.703125 86.394531 66.402344 C 82.667969 70.890625 79.105469 74.667969 77.34375 75.996094 C 76.921875 76.316406 76.898438 76.296875 77.140625 75.800781 C 77.640625 74.769531 78.378906 73.71875 80.039062 71.6875 C 81.976562 69.316406 83.90625 66.652344 85.15625 64.625 C 85.363281 64.289062 85.816406 63.550781 86.167969 62.980469 C 86.519531 62.414062 87.007812 61.601562 87.261719 61.175781 C 89.042969 58.152344 89.6875 57.421875 92.28125 55.460938 C 94.640625 53.679688 94.558594 53.277344 91.578125 52.101562 C 89.039062 51.101562 88.433594 51.128906 87.519531 52.28125 C 86.605469 53.425781 85.109375 56.636719 83.835938 60.171875 C 83.109375 62.179688 82.871094 62.820312 82.304688 64.234375 C 81.019531 67.4375 79.785156 69.859375 78.308594 72.050781 C 78.078125 72.394531 77.882812 72.671875 77.875 72.671875 C 77.867188 72.671875 78.015625 72.285156 78.203125 71.8125 C 78.492188 71.082031 78.839844 70.113281 79.46875 68.285156 C 80.613281 64.957031 81.933594 59.730469 82.398438 56.691406 C 83.054688 52.40625 83.085938 49.589844 82.492188 48.394531 C 82.015625 47.433594 81.492188 47.191406 78.484375 46.554688 C 74.003906 45.601562 72.371094 45.121094 68.683594 43.671875 C 66.398438 42.773438 65.675781 42.621094 64.914062 42.875 M 66.28125 43.242188 C 66.78125 43.363281 67.28125 43.539062 68.300781 43.949219 C 71.84375 45.371094 74.003906 46 78.976562 47.046875 C 81.234375 47.527344 81.808594 47.835938 82.234375 48.796875 C 82.695312 49.835938 82.636719 52.480469 82.070312 56.316406 C 81.417969 60.734375 79.71875 66.84375 77.730469 71.921875 C 77.320312 72.972656 77.226562 73.261719 77.222656 73.472656 L 77.214844 73.730469 L 77.375 73.742188 C 77.574219 73.761719 77.632812 73.710938 78.128906 73.046875 C 80.140625 70.359375 81.960938 66.5625 84.121094 60.539062 C 85.601562 56.40625 87.21875 53.082031 88.171875 52.199219 C 88.847656 51.574219 89.226562 51.601562 91.3125 52.425781 C 92.832031 53.027344 93.527344 53.421875 93.527344 53.6875 C 93.527344 53.914062 93.136719 54.285156 92 55.136719 C 89.40625 57.085938 88.753906 57.835938 86.8125 61.105469 C 86.441406 61.730469 85.140625 63.855469 84.515625 64.859375 C 83.351562 66.722656 81.703125 68.957031 79.28125 71.945312 C 76.855469 74.945312 75.894531 76.914062 76.976562 76.683594 C 77.683594 76.53125 80.523438 73.792969 83.832031 70.066406 C 84.582031 69.226562 86.429688 67.050781 87.023438 66.3125 C 87.390625 65.859375 89.464844 63.417969 90.074219 62.726562 C 90.378906 62.375 90.898438 61.785156 91.222656 61.410156 C 96.160156 55.734375 96.199219 55.714844 98.25 57.960938 C 98.601562 58.347656 98.996094 58.769531 99.121094 58.898438 C 99.601562 59.394531 99.496094 59.496094 97.84375 60.070312 C 95.746094 60.800781 94.625 61.367188 93.355469 62.335938 C 92.460938 63.019531 92.117188 63.328125 90.214844 65.140625 C 89.648438 65.679688 89.003906 66.292969 88.785156 66.5 C 87.894531 67.34375 87.617188 67.605469 87.214844 67.980469 C 86.980469 68.199219 86.78125 68.386719 86.765625 68.402344 C 86.753906 68.414062 86.53125 68.617188 86.273438 68.847656 C 86.015625 69.082031 85.792969 69.28125 85.78125 69.292969 C 85.730469 69.347656 84.347656 70.578125 83.671875 71.171875 C 78.222656 75.945312 75.894531 78.453125 76.089844 79.339844 C 76.253906 80.078125 77.90625 78.90625 82.636719 74.710938 C 82.726562 74.628906 83.003906 74.386719 83.246094 74.167969 C 89.808594 68.34375 92.550781 66.691406 94.535156 67.363281 C 95.453125 67.675781 97.722656 69.109375 100.324219 71.015625 L 100.703125 71.296875 L 99.988281 71.347656 C 94.421875 71.765625 86.09375 75 77.679688 80.003906 C 75.757812 81.152344 75.613281 81.570312 76.777344 82.691406 C 77.921875 83.796875 78.527344 83.894531 80.476562 83.285156 C 80.984375 83.128906 81.082031 83.109375 81.226562 83.15625 C 81.96875 83.375 83.558594 83.136719 86.539062 82.347656 C 87.226562 82.164062 87.902344 82.003906 88.039062 81.988281 C 88.179688 81.972656 87.722656 82.109375 87.027344 82.285156 C 85.652344 82.636719 84.324219 83.066406 82.335938 83.804688 C 78.914062 85.070312 78.472656 85.144531 77.394531 84.597656 C 76.683594 84.242188 76.207031 83.820312 75.535156 82.949219 C 74.902344 82.132812 74.332031 81.628906 73.695312 81.324219 C 73.542969 81.25 73.402344 81.175781 73.390625 81.15625 C 73.375 81.140625 73.175781 81.085938 72.945312 81.039062 C 72.625 80.976562 72.515625 80.933594 72.476562 80.863281 C 72.4375 80.78125 72.152344 80.367188 71.945312 80.085938 C 71.890625 80.011719 71.898438 79.980469 71.988281 79.855469 C 72.394531 79.308594 72.046875 78.59375 70.71875 77.269531 C 68.25 74.800781 65.820312 73.828125 63.804688 74.503906 C 63.054688 74.757812 62.746094 74.9375 60.273438 76.59375 C 54.105469 80.714844 53.324219 80.777344 49.457031 77.457031 C 46.992188 75.339844 46.175781 74.660156 45.019531 73.746094 C 43.253906 72.351562 42.222656 71.875 42.109375 72.394531 C 41.894531 73.378906 44.601562 76.003906 48.65625 78.738281 C 53.789062 82.195312 55.363281 82.175781 59.617188 78.609375 C 63.867188 75.042969 65.539062 74.792969 68.421875 77.277344 C 70.183594 78.792969 71.230469 79.828125 71.199219 80.019531 C 71.175781 80.175781 71.292969 80.269531 71.449219 80.21875 C 71.496094 80.203125 71.703125 80.425781 71.882812 80.6875 L 71.988281 80.839844 L 71.597656 80.839844 C 71.238281 80.839844 70.296875 80.984375 70.082031 81.074219 C 70.03125 81.097656 69.535156 81.210938 68.980469 81.332031 C 67.292969 81.703125 66.277344 82.011719 63.355469 83.054688 C 61.621094 83.671875 54.785156 85.949219 53.117188 86.464844 C 51.03125 87.109375 49.976562 87.367188 46.617188 88.066406 C 46.230469 88.148438 45.226562 88.386719 44.386719 88.597656 L 42.863281 88.980469 L 42.203125 88.980469 C 40.558594 88.984375 39.527344 87.601562 37.335938 82.433594 C 34.625 76.046875 34.175781 74.941406 34.300781 74.902344 C 34.367188 74.878906 34.390625 74.828125 34.390625 74.695312 C 34.390625 74.535156 34.414062 74.5 34.683594 74.300781 C 35.375 73.789062 35.960938 73.664062 37.910156 73.613281 C 40.28125 73.550781 40.570312 73.292969 40.214844 71.546875 C 40.003906 70.515625 40 70.117188 40.183594 69.503906 C 40.308594 69.097656 40.1875 69.085938 41.765625 69.644531 C 44.308594 70.550781 45.097656 70.871094 47.179688 71.851562 C 50.042969 73.199219 50.378906 73.1875 53.820312 71.570312 C 59.835938 68.746094 64.65625 68.480469 68.484375 70.765625 C 70.417969 71.921875 72.164062 74.296875 72.070312 75.640625 L 72.054688 75.839844 L 71.855469 75.636719 C 71.75 75.523438 71.457031 75.132812 71.203125 74.769531 C 70.039062 73.074219 69.214844 72.207031 68.074219 71.484375 C 65.15625 69.628906 60.183594 69.78125 57.316406 71.820312 C 55.378906 73.199219 54.0625 75.65625 53.976562 78.070312 C 53.9375 79.152344 54.042969 79.402344 54.539062 79.40625 C 55.003906 79.410156 55.332031 79.136719 56.324219 77.90625 C 58.570312 75.121094 59.34375 74.390625 60.796875 73.664062 C 63.359375 72.386719 65.582031 72.714844 68.777344 74.839844 C 70.527344 76.003906 72.921875 78.390625 72.921875 78.96875 C 72.921875 79.140625 73.121094 79.398438 73.300781 79.457031 C 73.351562 79.472656 73.390625 79.503906 73.390625 79.527344 C 73.390625 79.597656 73.578125 79.671875 73.675781 79.640625 C 73.726562 79.625 73.765625 79.585938 73.765625 79.550781 C 73.765625 79.515625 73.820312 79.453125 73.882812 79.414062 C 74.761719 78.839844 74.324219 74.816406 73.128906 72.484375 C 72.308594 70.878906 70.890625 69.664062 68.371094 68.410156 C 66.800781 67.628906 66.519531 67.511719 63.558594 66.429688 C 59.929688 65.101562 59.726562 64.863281 58.628906 60.632812 C 57.457031 56.113281 57.050781 54.949219 55.109375 50.566406 C 54.460938 49.109375 53.496094 47.183594 52.730469 45.828125 C 52.023438 44.570312 51.996094 44.492188 52.253906 44.539062 C 52.828125 44.644531 54.660156 45.238281 57.152344 46.132812 C 58.070312 46.460938 59.210938 46.859375 59.6875 47.023438 C 67.554688 49.710938 67.691406 49.800781 69.707031 53.875 C 72.957031 60.453125 73.65625 63.046875 73.976562 69.738281 C 74.113281 72.570312 74.160156 73.324219 74.285156 74.480469 C 74.335938 74.945312 74.429688 75.863281 74.496094 76.519531 C 74.753906 79.160156 74.84375 79.476562 75.304688 79.476562 C 75.902344 79.476562 76.011719 77.445312 75.597656 74.128906 C 75.359375 72.234375 75.3125 71.582031 75.128906 67.769531 C 74.929688 63.664062 74.621094 61.34375 73.8125 57.9375 C 73.023438 54.601562 72.421875 53.097656 71.269531 51.5625 C 70.042969 49.917969 68.75 49.074219 65.4375 47.742188 C 64.402344 47.328125 64.105469 47.175781 63.871094 46.949219 C 63.171875 46.261719 63.433594 44.742188 64.429688 43.710938 C 64.96875 43.152344 65.429688 43.035156 66.28125 43.242188 M 51.777344 63.144531 C 54.566406 63.378906 57.472656 64.394531 58.558594 65.511719 L 58.71875 65.679688 L 58.488281 65.652344 C 58.121094 65.609375 57.644531 65.515625 56.332031 65.230469 C 52.113281 64.324219 48.234375 64.230469 45.589844 64.976562 C 43.308594 65.617188 41.21875 66.957031 40.273438 68.382812 C 40.179688 68.523438 40.089844 68.636719 40.078125 68.636719 C 40.007812 68.636719 38.828125 68.179688 38.496094 68.027344 C 37.0625 67.355469 37.3125 66.648438 39.324219 65.667969 C 42.84375 63.949219 48.261719 62.851562 51.777344 63.144531 M 101.273438 71.804688 C 101.335938 71.851562 101.5 72.019531 101.632812 72.175781 C 102.503906 73.183594 102.195312 73.367188 96.835938 75.042969 C 93.648438 76.039062 93.640625 76.039062 89.722656 76.988281 C 84.742188 78.199219 82.320312 78.964844 82.160156 79.378906 C 82.03125 79.71875 82.183594 79.785156 82.984375 79.746094 C 84.035156 79.695312 85.378906 79.472656 89.152344 78.722656 C 90.453125 78.46875 92.394531 78.097656 93.472656 77.902344 C 96.960938 77.273438 98.710938 76.886719 100.917969 76.261719 C 102.664062 75.765625 103.230469 75.730469 103.429688 76.097656 C 103.566406 76.355469 102.847656 77.140625 102.132812 77.515625 C 101.117188 78.046875 100.117188 78.199219 96.507812 78.375 C 89.613281 78.714844 83.90625 79.933594 81.414062 81.597656 C 80.769531 82.027344 80.597656 82.261719 80.628906 82.652344 L 80.644531 82.835938 L 80.289062 82.941406 C 78.488281 83.5 78.066406 83.410156 76.921875 82.230469 C 76.085938 81.371094 76.054688 81.402344 79.773438 79.269531 C 84.355469 76.640625 88.738281 74.65625 93.125 73.230469 C 96.453125 72.148438 100.738281 71.398438 101.273438 71.804688 M 102.34375 72.070312 C 103.222656 72.570312 103.433594 72.976562 104.5 76.21875 C 105.40625 78.996094 105.421875 79.085938 105.015625 79.476562 C 104.605469 79.871094 104.40625 79.910156 102.707031 79.953125 C 101.882812 79.972656 101.175781 80.003906 101.132812 80.019531 C 101.09375 80.035156 100.023438 80.066406 98.757812 80.089844 C 96.265625 80.136719 95.464844 80.179688 94.277344 80.324219 C 92.675781 80.523438 89.921875 81.0625 88.199219 81.519531 C 87.964844 81.578125 87.558594 81.644531 87.285156 81.660156 C 84.886719 81.804688 83.4375 82.027344 81.640625 82.539062 C 80.1875 82.949219 81.386719 81.898438 83.3125 81.074219 C 86.070312 79.890625 91.019531 79.019531 96.480469 78.75 C 99.285156 78.613281 100.332031 78.507812 101.304688 78.253906 C 102.75 77.882812 103.800781 77.015625 103.804688 76.191406 C 103.804688 75.324219 103.09375 75.265625 100.683594 75.925781 C 98.03125 76.652344 96.609375 76.960938 92.492188 77.695312 C 92.042969 77.773438 90.5625 78.058594 89.207031 78.328125 C 85.839844 78.996094 84.230469 79.273438 83.222656 79.359375 C 81.992188 79.464844 85.699219 78.347656 89.980469 77.320312 C 93.523438 76.46875 93.824219 76.386719 97 75.394531 C 100.832031 74.199219 101.707031 73.867188 102.105469 73.46875 C 102.449219 73.125 102.472656 72.746094 102.183594 72.214844 C 101.996094 71.875 101.996094 71.875 102.34375 72.070312 M 42.804688 72.726562 C 43.3125 72.984375 44.425781 73.785156 45.398438 74.59375 C 45.636719 74.789062 46.109375 75.179688 46.453125 75.464844 C 47.167969 76.054688 47.832031 76.617188 48.800781 77.460938 C 52.238281 80.445312 53.707031 80.820312 56.519531 79.433594 C 57.34375 79.027344 58.640625 78.214844 60.777344 76.765625 C 64.035156 74.554688 64.75 74.320312 66.488281 74.90625 C 68.664062 75.640625 72.199219 78.8125 71.675781 79.5625 C 71.605469 79.664062 71.597656 79.660156 71.148438 79.203125 C 70.125 78.167969 68.242188 76.519531 67.546875 76.050781 C 65.304688 74.539062 63.097656 75.121094 59.4375 78.203125 C 55.410156 81.59375 54.082031 81.71875 49.960938 79.097656 C 46.585938 76.949219 43.71875 74.542969 42.71875 73.019531 C 42.433594 72.582031 42.445312 72.542969 42.804688 72.726562 M 94.441406 80.769531 C 93.949219 80.855469 93.328125 80.96875 93.058594 81.023438 C 91.234375 81.371094 89.714844 81.597656 90.027344 81.472656 C 90.277344 81.371094 93.144531 80.851562 94.277344 80.703125 C 95.335938 80.5625 95.425781 80.597656 94.441406 80.769531 M 85.289062 82.273438 C 84.167969 82.570312 83.050781 82.78125 82.332031 82.828125 L 81.957031 82.855469 L 82.378906 82.742188 C 82.960938 82.582031 84.054688 82.363281 84.703125 82.273438 C 85 82.234375 85.296875 82.195312 85.359375 82.183594 C 85.695312 82.132812 85.664062 82.175781 85.289062 82.273438 "/></g><g clip-rule="nonzero" clip-path="url(#f5e2045263)"><path style=" stroke:none;fill-rule:nonzero;fill:#ef95a8;fill-opacity:1;" d="M 81.539062 19.78125 C 81.347656 19.78125 81.164062 19.902344 81.097656 20.097656 C 81.007812 20.351562 80.871094 20.6875 80.683594 21.105469 L 78.582031 25.71875 L 78.578125 25.730469 C 77.746094 27.679688 77.21875 28.964844 77 29.582031 C 76.914062 29.824219 77.039062 30.09375 77.285156 30.179688 C 77.335938 30.199219 77.390625 30.207031 77.441406 30.207031 C 77.636719 30.207031 77.816406 30.085938 77.882812 29.894531 C 78.097656 29.296875 78.613281 28.035156 79.4375 26.109375 L 81.539062 21.492188 L 81.539062 21.488281 C 81.738281 21.046875 81.886719 20.6875 81.984375 20.402344 C 82.070312 20.160156 81.941406 19.890625 81.695312 19.808594 C 81.644531 19.789062 81.589844 19.78125 81.539062 19.78125 Z M 81.539062 19.78125 "/></g><path style=" stroke:none;fill-rule:nonzero;fill:#ef95a8;fill-opacity:1;" d="M 82.304688 28.226562 C 82.160156 28.226562 82.015625 28.292969 81.925781 28.421875 C 81.242188 29.359375 80.640625 30.308594 80.125 31.261719 C 80.003906 31.492188 80.085938 31.777344 80.316406 31.898438 C 80.386719 31.9375 80.460938 31.957031 80.539062 31.957031 C 80.703125 31.957031 80.867188 31.867188 80.949219 31.710938 C 81.449219 30.789062 82.023438 29.878906 82.683594 28.972656 C 82.835938 28.761719 82.789062 28.46875 82.578125 28.316406 C 82.496094 28.253906 82.398438 28.226562 82.304688 28.226562 Z M 82.304688 28.226562 "/><path style=" stroke:none;fill-rule:nonzero;fill:#ef95a8;fill-opacity:1;" d="M 92.730469 28.691406 C 92.636719 28.691406 92.539062 28.722656 92.457031 28.78125 C 88.585938 31.542969 86.527344 33.042969 86.273438 33.28125 C 86.257812 33.296875 86.246094 33.308594 86.234375 33.324219 C 86.0625 33.515625 86.078125 33.8125 86.273438 33.984375 C 86.363281 34.066406 86.472656 34.105469 86.585938 34.105469 C 86.707031 34.105469 86.832031 34.054688 86.921875 33.960938 C 87.140625 33.75 89.167969 32.277344 93.003906 29.542969 C 93.214844 29.394531 93.261719 29.101562 93.113281 28.890625 C 93.019531 28.761719 92.875 28.691406 92.730469 28.691406 Z M 92.730469 28.691406 "/><g clip-rule="nonzero" clip-path="url(#155dac5cff)"><path style=" stroke:none;fill-rule:nonzero;fill:#ef95a8;fill-opacity:1;" d="M 89.742188 36.460938 C 89.691406 36.460938 89.640625 36.46875 89.59375 36.484375 C 88.828125 36.738281 88.265625 36.917969 87.914062 37.027344 C 87.625 37.109375 87.371094 37.167969 87.144531 37.195312 C 86.886719 37.230469 86.707031 37.464844 86.742188 37.722656 C 86.773438 37.957031 86.972656 38.128906 87.207031 38.128906 C 87.226562 38.128906 87.246094 38.128906 87.265625 38.125 C 87.542969 38.089844 87.847656 38.023438 88.179688 37.925781 L 88.183594 37.925781 C 88.546875 37.816406 89.113281 37.632812 89.890625 37.375 C 90.136719 37.292969 90.269531 37.027344 90.1875 36.78125 C 90.121094 36.585938 89.9375 36.460938 89.742188 36.460938 Z M 89.742188 36.460938 "/></g><path style=" stroke:none;fill-rule:nonzero;fill:#ef95a8;fill-opacity:1;" d="M 71.933594 23.578125 C 71.910156 23.578125 71.886719 23.578125 71.863281 23.582031 C 71.609375 23.621094 71.429688 23.859375 71.46875 24.113281 L 71.644531 25.296875 C 71.679688 25.5625 71.707031 25.871094 71.730469 26.230469 L 71.734375 26.230469 C 71.777344 26.8125 71.804688 27.785156 71.820312 29.148438 C 71.824219 29.40625 72.03125 29.613281 72.289062 29.613281 C 72.289062 29.613281 72.292969 29.613281 72.292969 29.613281 C 72.554688 29.609375 72.761719 29.398438 72.757812 29.136719 C 72.742188 27.757812 72.714844 26.765625 72.667969 26.164062 C 72.640625 25.78125 72.609375 25.453125 72.574219 25.171875 L 72.574219 25.160156 L 72.398438 23.976562 C 72.363281 23.746094 72.164062 23.578125 71.933594 23.578125 Z M 71.933594 23.578125 "/><path style=" stroke:none;fill-rule:nonzero;fill:#ef95a8;fill-opacity:1;" d="M 63.777344 20.621094 C 63.734375 20.621094 63.691406 20.625 63.648438 20.636719 C 63.402344 20.707031 63.253906 20.964844 63.324219 21.214844 L 65.441406 28.789062 C 65.5 28.996094 65.6875 29.128906 65.890625 29.128906 C 65.933594 29.128906 65.976562 29.125 66.019531 29.113281 C 66.269531 29.042969 66.414062 28.785156 66.34375 28.535156 L 64.226562 20.960938 C 64.171875 20.753906 63.980469 20.621094 63.777344 20.621094 Z M 63.777344 20.621094 "/><path style=" stroke:none;fill-rule:nonzero;fill:#ef95a8;fill-opacity:1;" d="M 59.808594 28.960938 C 59.742188 28.960938 59.675781 28.972656 59.609375 29.003906 C 59.375 29.113281 59.277344 29.394531 59.386719 29.628906 C 59.464844 29.789062 59.5625 29.972656 59.683594 30.175781 L 59.6875 30.179688 C 60.785156 31.964844 61.367188 32.921875 61.4375 33.058594 C 61.515625 33.226562 61.683594 33.324219 61.859375 33.324219 C 61.925781 33.324219 61.992188 33.3125 62.054688 33.28125 C 62.289062 33.175781 62.394531 32.894531 62.285156 32.660156 C 62.28125 32.652344 62.277344 32.644531 62.273438 32.636719 L 62.273438 32.632812 C 62.191406 32.476562 61.597656 31.496094 60.488281 29.695312 C 60.382812 29.519531 60.296875 29.363281 60.234375 29.226562 C 60.15625 29.058594 59.984375 28.960938 59.808594 28.960938 Z M 59.808594 28.960938 "/><path style=" stroke:none;fill-rule:nonzero;fill:#ef95a8;fill-opacity:1;" d="M 52.175781 27.207031 C 52.0625 27.207031 51.945312 27.25 51.855469 27.332031 C 51.667969 27.507812 51.65625 27.804688 51.832031 27.996094 C 52.078125 28.261719 52.386719 28.632812 52.753906 29.113281 C 55.042969 32.1875 56.460938 34.0625 57.007812 34.730469 C 57.101562 34.84375 57.234375 34.902344 57.371094 34.902344 C 57.476562 34.902344 57.582031 34.867188 57.667969 34.796875 C 57.867188 34.632812 57.898438 34.335938 57.734375 34.136719 C 57.195312 33.480469 55.785156 31.617188 53.503906 28.546875 L 53.5 28.539062 C 53.113281 28.039062 52.785156 27.644531 52.519531 27.355469 C 52.425781 27.257812 52.300781 27.207031 52.175781 27.207031 Z M 52.175781 27.207031 "/><g clip-rule="nonzero" clip-path="url(#dc25f3f7ca)"><path style=" stroke:none;fill-rule:nonzero;fill:#ef95a8;fill-opacity:1;" d="M 51.453125 36.820312 C 51.292969 36.820312 51.160156 36.824219 51.054688 36.835938 L 51.050781 36.835938 C 50.792969 36.855469 50.605469 37.085938 50.625 37.34375 C 50.648438 37.589844 50.855469 37.773438 51.0625 37.773438 C 51.074219 37.773438 51.082031 37.773438 51.09375 37.769531 L 51.136719 37.769531 C 51.21875 37.761719 51.320312 37.757812 51.449219 37.757812 C 51.523438 37.757812 51.605469 37.757812 51.695312 37.761719 C 51.835938 37.765625 51.972656 37.769531 52.101562 37.773438 C 52.796875 37.804688 53.25 37.820312 53.460938 37.828125 C 53.761719 37.839844 54.050781 37.847656 54.320312 37.851562 C 54.324219 37.851562 54.328125 37.851562 54.332031 37.851562 C 54.585938 37.851562 54.796875 37.648438 54.800781 37.394531 C 54.808594 37.136719 54.605469 36.921875 54.34375 36.914062 C 54.070312 36.910156 53.785156 36.898438 53.488281 36.890625 C 53.285156 36.882812 52.835938 36.867188 52.140625 36.835938 L 52.136719 36.835938 C 52.007812 36.832031 51.871094 36.828125 51.71875 36.824219 C 51.625 36.820312 51.535156 36.820312 51.453125 36.820312 Z M 51.453125 36.820312 "/></g></g></svg>